<svg width="120" height="114" viewBox="0 0 120 114" fill="none" xmlns="http://www.w3.org/2000/svg">
  <g clip-path="url(#clip0)">
    <path d="M72.632 6.396L10.113 19.782l18.535 86.197 62.518-13.386L72.632 6.396z" fill="#E0E0E0"/>
    <path opacity=".5" d="M71.89 8.08L11.484 21.012l17.908 83.283 60.406-12.933L71.89 8.079z" fill="url(#paint0_linear)"/>
    <path d="M71.252 8.857L12.384 21.461l17.512 81.444 58.868-12.604L71.252 8.857z" fill="#FAFAFA"/>
    <path d="M55.738 8.486l-29.204 6.252 1.518 7.06 29.204-6.253-1.518-7.06z" fill="url(#paint1_linear)"/>
    <path d="M39.652 4.718c-2.255.483-3.681 2.741-3.185 5.044.496 2.302 2.724 3.78 4.974 3.297 2.25-.484 3.681-2.742 3.185-5.045-.495-2.302-2.72-3.78-4.974-3.296zm1.415 6.584a2.471 2.471 0 01-2.577-.96 2.458 2.458 0 011.002-3.683 2.471 2.471 0 012.71.472c.353.338.598.774.702 1.251a2.427 2.427 0 01-.966 2.533 2.44 2.44 0 01-.871.387z" fill="url(#paint2_linear)"/>
    <path d="M55.365 8.25l-28.589 6.12 1.451 6.748 28.589-6.121-1.451-6.748z" fill="#5B63FE"/>
    <path d="M39.652 4.717A4.089 4.089 0 0036.49 7.97a4.07 4.07 0 001.8 4.16 4.093 4.093 0 006.018-1.92 4.07 4.07 0 00-1.58-4.929 4.091 4.091 0 00-3.076-.563zm1.352 6.293a2.363 2.363 0 01-2.436-.964 2.35 2.35 0 011.006-3.498 2.363 2.363 0 012.578.472 2.352 2.352 0 01-1.148 3.99z" fill="#5B63FE"/>
    <path d="M101.674 17.07H37.732v88.158h63.942V17.069z" fill="#E0E0E0"/>
    <path opacity=".5" d="M100.594 18.56h-61.78v85.179h61.78v-85.18z" fill="url(#paint3_linear)"/>
    <path d="M99.807 19.188H39.6v83.297h60.207V19.188z" fill="#fff"/>
    <path d="M84.716 15.575H54.848v7.22h29.868v-7.22z" fill="url(#paint4_linear)"/>
    <path d="M69.782 8.528c-2.306 0-4.176 1.91-4.176 4.266 0 2.357 1.87 4.267 4.176 4.267s4.176-1.91 4.176-4.267c0-2.356-1.87-4.266-4.176-4.266zm0 6.728a2.47 2.47 0 01-2.32-1.478 2.457 2.457 0 01.497-2.702 2.468 2.468 0 014.231 1.718 2.43 2.43 0 01-.697 1.721 2.44 2.44 0 01-1.71.73v.011z" fill="url(#paint5_linear)"/>
    <path d="M84.402 15.266H55.163v6.902h29.24v-6.902z" fill="#5B63FE"/>
    <path d="M69.783 8.528a4.093 4.093 0 00-3.776 2.518 4.07 4.07 0 00.886 4.444 4.09 4.09 0 006.976-2.884c0-1.081-.43-2.119-1.197-2.883a4.09 4.09 0 00-2.89-1.195zm0 6.432a2.362 2.362 0 01-2.177-1.454 2.35 2.35 0 011.717-3.208 2.363 2.363 0 012.421.997c.26.386.4.84.4 1.305a2.35 2.35 0 01-1.458 2.174 2.361 2.361 0 01-.903.178v.008z" fill="#5B63FE"/>
    <g opacity=".5" fill="#47E6B1">
      <path opacity=".5" d="M2.784 107.611h-.55v3.114h.55v-3.114z"/>
      <path opacity=".5" d="M4.07 109.443v-.549H.95v.549h3.12z"/>
    </g>
    <g opacity=".5" fill="#47E6B1">
      <path opacity=".5" d="M66.609 0h-.55v3.114h.55V0z"/>
      <path opacity=".5" d="M67.895 1.831v-.549h-3.12v.55h3.12z"/>
    </g>
    <path opacity=".5" d="M112.819 112.796a.673.673 0 01-.376-.814.314.314 0 00-.04-.279.337.337 0 00-.591.047.673.673 0 01-.815.375.329.329 0 00-.279.04.34.34 0 00-.14.377.342.342 0 00.187.213.675.675 0 01.376.813.314.314 0 00.04.279.334.334 0 00.59-.047.675.675 0 01.815-.375.33.33 0 00.28-.04.337.337 0 00-.047-.589z" fill="#4D8AF0"/>
    <path opacity=".5" d="M19.997 82.856a.674.674 0 01-.376-.813.321.321 0 00-.04-.28.338.338 0 00-.59.048.674.674 0 01-.816.375.34.34 0 00-.42.417.337.337 0 00.187.212.674.674 0 01.377.813.321.321 0 00.04.28.338.338 0 00.59-.047.674.674 0 01.815-.376c.024.008.05.013.075.015a.34.34 0 00.344-.432.338.338 0 00-.186-.212zM97.31 9.955a.673.673 0 01-.376-.814.326.326 0 00-.04-.279.338.338 0 00-.59.047.674.674 0 01-.815.376.326.326 0 00-.28.04.337.337 0 00.047.589.674.674 0 01.376.813.325.325 0 00.04.28.338.338 0 00.59-.048.674.674 0 01.816-.375c.024.008.049.013.074.015a.34.34 0 00.338-.22.337.337 0 00-.18-.424z" fill="#FDD835"/>
    <path opacity=".5" d="M118.9 47.013a1.1 1.1 0 10-1.102-1.1 1.1 1.1 0 001.102 1.1zM33.759 110.112a1.1 1.1 0 10-1.102-1.1 1.1 1.1 0 001.102 1.1zM107.585 70.776a1.1 1.1 0 100-2.199c-.608 0-1.102.492-1.102 1.1 0 .607.494 1.099 1.102 1.099z" fill="#F55F44"/>
    <path opacity=".5" d="M12.75 15.167a1.1 1.1 0 10-1.102-1.1 1.1 1.1 0 001.102 1.1z" fill="#4D8AF0"/>
    <path opacity=".5" d="M1.102 45.157A1.1 1.1 0 100 44.057a1.1 1.1 0 001.102 1.1z" fill="#47E6B1"/>
  </g>
  <defs>
    <linearGradient id="paint0_linear" x1="59.594" y1="97.83" x2="41.759" y2="14.531" gradientUnits="userSpaceOnUse">
      <stop stop-color="gray" stop-opacity=".25"/>
      <stop offset=".54" stop-color="gray" stop-opacity=".12"/>
      <stop offset="1" stop-color="gray" stop-opacity=".1"/>
    </linearGradient>
    <linearGradient id="paint1_linear" x1="16066.1" y1="-2087.67" x2="15991.3" y2="-2436.81" gradientUnits="userSpaceOnUse">
      <stop stop-color="gray" stop-opacity=".25"/>
      <stop offset=".54" stop-color="gray" stop-opacity=".12"/>
      <stop offset="1" stop-color="gray" stop-opacity=".1"/>
    </linearGradient>
    <linearGradient id="paint2_linear" x1="4691.34" y1="238.125" x2="4587.05" y2="-248.955" gradientUnits="userSpaceOnUse">
      <stop stop-color="gray" stop-opacity=".25"/>
      <stop offset=".54" stop-color="gray" stop-opacity=".12"/>
      <stop offset="1" stop-color="gray" stop-opacity=".1"/>
    </linearGradient>
    <linearGradient id="paint3_linear" x1="29471.1" y1="60540.9" x2="29471.1" y2="10846.5" gradientUnits="userSpaceOnUse">
      <stop stop-color="gray" stop-opacity=".25"/>
      <stop offset=".54" stop-color="gray" stop-opacity=".12"/>
      <stop offset="1" stop-color="gray" stop-opacity=".1"/>
    </linearGradient>
    <linearGradient id="paint4_linear" x1="14300.2" y1="1142.8" x2="14300.2" y2="785.785" gradientUnits="userSpaceOnUse">
      <stop stop-color="gray" stop-opacity=".25"/>
      <stop offset=".54" stop-color="gray" stop-opacity=".12"/>
      <stop offset="1" stop-color="gray" stop-opacity=".1"/>
    </linearGradient>
    <linearGradient id="paint5_linear" x1="5634.91" y1="1513.55" x2="5634.91" y2="1014.92" gradientUnits="userSpaceOnUse">
      <stop stop-color="gray" stop-opacity=".25"/>
      <stop offset=".54" stop-color="gray" stop-opacity=".12"/>
      <stop offset="1" stop-color="gray" stop-opacity=".1"/>
    </linearGradient>
    <clipPath id="clip0">
      <path fill="#fff" d="M0 0h120v114H0z"/>
    </clipPath>
  </defs>
</svg>
