<?xml version="1.0" encoding="UTF-8"?>
<svg width="20px" height="20px" viewBox="0 0 20 20" version="1.1" xmlns="http://www.w3.org/2000/svg" xmlns:xlink="http://www.w3.org/1999/xlink">
    <!-- Generator: Sketch 48.2 (47327) - http://www.bohemiancoding.com/sketch -->
    <title>ic_header_menu</title>
    <desc>Created with Sketch.</desc>
    <defs>
        <path d="M1.81818182,0 L7.27272727,0 C8.27688136,0 9.09090909,0.814027728 9.09090909,1.81818182 L9.09090909,7.27272727 C9.09090909,8.27688136 8.27688136,9.09090909 7.27272727,9.09090909 L1.81818182,9.09090909 C0.814027728,9.09090909 0,8.27688136 0,7.27272727 L0,1.81818182 C0,0.814027728 0.814027728,0 1.81818182,0 Z M12.7272727,0 L18.1818182,0 C19.1859723,0 20,0.814027728 20,1.81818182 L20,7.27272727 C20,8.27688136 19.1859723,9.09090909 18.1818182,9.09090909 L12.7272727,9.09090909 C11.7231186,9.09090909 10.9090909,8.27688136 10.9090909,7.27272727 L10.9090909,1.81818182 C10.9090909,0.814027728 11.7231186,0 12.7272727,0 Z M1.81818182,10.9090909 L7.27272727,10.9090909 C8.27688136,10.9090909 9.09090909,11.7231186 9.09090909,12.7272727 L9.09090909,18.1818182 C9.09090909,19.1859723 8.27688136,20 7.27272727,20 L1.81818182,20 C0.814027728,20 0,19.1859723 0,18.1818182 L0,12.7272727 C0,11.7231186 0.814027728,10.9090909 1.81818182,10.9090909 Z M12.7272727,10.9090909 L18.1818182,10.9090909 C19.1859723,10.9090909 20,11.7231186 20,12.7272727 L20,18.1818182 C20,19.1859723 19.1859723,20 18.1818182,20 L12.7272727,20 C11.7231186,20 10.9090909,19.1859723 10.9090909,18.1818182 L10.9090909,12.7272727 C10.9090909,11.7231186 11.7231186,10.9090909 12.7272727,10.9090909 Z" id="path-1"></path>
    </defs>
    <g id="Header-Guard" stroke="none" stroke-width="1" fill="none" fill-rule="evenodd" transform="translate(-30.000000, -25.000000)">
        <g id="ic_header_menu" transform="translate(30.000000, 25.000000)">
            <g id="Menu">
                <use fill="#FFFFFF" fill-rule="evenodd" xlink:href="#path-1"></use>
                <path stroke="#8B959E" stroke-width="2" d="M1.81818182,1 C1.36631248,1 1,1.36631248 1,1.81818182 L1,7.27272727 C1,7.72459661 1.36631248,8.09090909 1.81818182,8.09090909 L7.27272727,8.09090909 C7.72459661,8.09090909 8.09090909,7.72459661 8.09090909,7.27272727 L8.09090909,1.81818182 C8.09090909,1.36631248 7.72459661,1 7.27272727,1 L1.81818182,1 Z M12.7272727,1 C12.2754034,1 11.9090909,1.36631248 11.9090909,1.81818182 L11.9090909,7.27272727 C11.9090909,7.72459661 12.2754034,8.09090909 12.7272727,8.09090909 L18.1818182,8.09090909 C18.6336875,8.09090909 19,7.72459661 19,7.27272727 L19,1.81818182 C19,1.36631248 18.6336875,1 18.1818182,1 L12.7272727,1 Z M1.81818182,11.9090909 C1.36631248,11.9090909 1,12.2754034 1,12.7272727 L1,18.1818182 C1,18.6336875 1.36631248,19 1.81818182,19 L7.27272727,19 C7.72459661,19 8.09090909,18.6336875 8.09090909,18.1818182 L8.09090909,12.7272727 C8.09090909,12.2754034 7.72459661,11.9090909 7.27272727,11.9090909 L1.81818182,11.9090909 Z M12.7272727,11.9090909 C12.2754034,11.9090909 11.9090909,12.2754034 11.9090909,12.7272727 L11.9090909,18.1818182 C11.9090909,18.6336875 12.2754034,19 12.7272727,19 L18.1818182,19 C18.6336875,19 19,18.6336875 19,18.1818182 L19,12.7272727 C19,12.2754034 18.6336875,11.9090909 18.1818182,11.9090909 L12.7272727,11.9090909 Z"></path>
            </g>
        </g>
    </g>
</svg>