<svg width="74" height="94" viewBox="0 0 74 94" fill="none" xmlns="http://www.w3.org/2000/svg">
<path d="M71.375 57.3125V45.2813C71.375 41.1787 69.7453 37.2441 66.8443 34.3432C63.9434 31.4422 60.0088 29.8125 55.9063 29.8125H49.0313C47.6637 29.8125 46.3522 29.2693 45.3852 28.3023C44.4182 27.3353 43.875 26.0238 43.875 24.6563V17.7813C43.875 13.6787 42.2453 9.74415 39.3443 6.84319C36.4434 3.94224 32.5088 2.3125 28.4063 2.3125H19.8125M19.8125 60.75H54.1875M19.8125 74.5H37M30.125 2.3125H7.78125C4.935 2.3125 2.625 4.6225 2.625 7.46875V86.5313C2.625 89.3775 4.935 91.6875 7.78125 91.6875H66.2188C69.065 91.6875 71.375 89.3775 71.375 86.5313V43.5625C71.375 32.6223 67.029 22.1302 59.2932 14.3943C51.5573 6.65847 41.0652 2.3125 30.125 2.3125V2.3125Z" stroke="#CACACA" stroke-width="4" stroke-linecap="round" stroke-linejoin="round"/>
</svg>
